<?xml version="1.0" standalone="no"?>
<!DOCTYPE svg PUBLIC "-//W3C//DTD SVG 20010904//EN"
 "http://www.w3.org/TR/2001/REC-SVG-20010904/DTD/svg10.dtd">
<svg version="1.0" xmlns="http://www.w3.org/2000/svg"
 width="453.000000pt" height="340.000000pt" viewBox="0 0 453.000000 340.000000"
 preserveAspectRatio="xMidYMid meet">

<g transform="translate(0.000000,340.000000) scale(0.100000,-0.100000)"
fill="#000000" stroke="none">
<path d="M2240 2755 c0 -4 22 -46 49 -94 124 -218 124 -380 -2 -564 -47 -68
-64 -119 -53 -159 8 -32 24 -54 32 -45 4 3 1 13 -6 22 -23 28 -7 108 33 163
100 140 128 263 91 406 -22 86 -144 316 -144 271z"/>
<path d="M2090 2564 c0 -3 18 -26 39 -52 57 -69 83 -126 83 -186 1 -57 -11
-86 -77 -182 -71 -104 -72 -177 -5 -307 22 -43 40 -81 40 -83 0 -2 -24 -4 -54
-4 -123 0 -292 -49 -347 -101 l-32 -30 6 -102 c4 -57 18 -170 32 -252 49 -295
132 -386 379 -416 225 -28 393 22 466 138 22 34 44 53 93 77 94 48 131 80 166
145 72 135 19 260 -121 286 l-36 7 5 57 c5 54 3 60 -27 95 -18 20 -45 43 -60
51 -39 20 -110 31 -110 16 0 -6 12 -11 28 -11 69 -1 152 -66 152 -120 0 -49
-102 -130 -139 -111 -115 62 -571 59 -667 -4 -22 -14 -27 -14 -61 4 -77 39
-103 81 -81 128 29 61 145 107 316 125 l103 11 40 -39 c53 -51 49 -36 -8 34
-83 102 -129 235 -109 315 3 13 30 62 61 108 30 45 58 98 61 117 15 79 -21
175 -97 260 -28 31 -39 38 -39 26z m616 -1066 c-3 -18 -8 -78 -11 -133 -19
-285 -71 -402 -212 -471 -45 -22 -70 -27 -176 -31 -207 -9 -321 21 -402 108
-54 58 -77 108 -99 215 -18 84 -46 274 -46 307 0 18 1 19 18 5 29 -26 133 -65
212 -79 47 -9 145 -13 260 -13 222 1 306 19 399 83 31 22 57 40 58 40 2 1 1
-14 -1 -31z m123 -45 c14 -11 36 -39 49 -64 53 -101 -15 -231 -157 -304 -28
-14 -53 -25 -55 -25 -3 0 -1 12 5 28 6 17 31 40 65 61 81 49 111 121 83 200
-11 31 -52 61 -84 61 -11 0 -15 10 -15 36 l0 37 42 -6 c23 -3 53 -14 67 -24z
m-40 -89 c41 -53 20 -149 -42 -191 -59 -40 -66 -40 -56 4 4 21 11 77 15 126 7
87 7 87 35 87 18 0 35 -9 48 -26z"/>
<path d="M2285 1740 c68 -11 198 -11 165 0 -14 4 -68 8 -120 8 -82 -1 -88 -2
-45 -8z"/>
<path d="M1606 1055 c-111 -42 -136 -60 -160 -117 -24 -57 -16 -106 24 -152
45 -51 127 -82 300 -113 151 -27 165 -28 505 -28 298 0 364 3 444 18 165 32
295 81 349 130 33 30 46 88 29 129 -26 61 -120 125 -214 146 -24 6 -43 6 -43
2 0 -4 15 -11 34 -14 54 -10 152 -64 185 -102 45 -51 44 -105 -4 -149 -103
-98 -397 -155 -795 -155 -233 0 -552 37 -663 76 -92 32 -147 90 -147 154 0 84
51 129 192 172 43 13 78 26 78 31 0 13 -23 7 -114 -28z"/>
</g>
</svg>
